<svg width="156" height="64" viewBox="0 0 156 64" fill="none" xmlns="http://www.w3.org/2000/svg">
<path d="M69.229 46.7006L73.1736 47.8003C73.7553 47.9443 74.3591 47.6451 74.445 47.1715L78.9658 22.0969C79.0101 21.8448 78.8799 21.5899 78.6361 21.4542C76.9519 20.5124 76.1126 20.0138 73.7193 19.6287C73.4229 19.5816 73.1237 19.7063 72.9769 19.9418L56.7942 46.0579C56.6252 46.3294 56.8108 46.659 57.1792 46.7449L58.916 47.1548C59.2069 47.2241 59.5171 47.1188 59.6501 46.9055L63.7304 40.4319C63.8135 40.3017 63.9686 40.2214 64.1376 40.2214L69.5005 40.2574C69.7941 40.2574 70.0129 40.4984 69.9575 40.7532L68.7913 46.141C68.7387 46.3848 68.9243 46.6202 69.2234 46.695L69.229 46.7006ZM65.6418 38.6757C65.2872 38.6729 65.0656 38.3294 65.2373 38.0552L72.9243 25.8641C72.9963 25.7478 73.1985 25.8143 73.168 25.9445L70.47 38.3876C70.4284 38.5843 70.2345 38.7228 70.0101 38.72L65.6418 38.6729V38.6757ZM22.2764 46.213L24.005 46.6396C24.2986 46.7116 24.6116 46.6064 24.7473 46.3931L28.8443 39.8973C28.9329 39.756 29.1019 39.6701 29.2847 39.6701L34.5783 39.7062C34.8941 39.7062 35.1323 39.9665 35.0741 40.2435L33.9162 45.5898C33.8636 45.8335 34.0492 46.069 34.3484 46.1438L38.4314 47.2269C39.0131 47.3709 39.617 47.0717 39.7029 46.5981L44.0353 20.2409C44.1211 19.7617 43.8164 19.288 43.2707 19.0581L40.4286 18.3573C39.6946 18.047 38.786 18.2742 38.4259 18.8587L21.8997 45.5288C21.7335 45.7975 21.9136 46.1244 22.2792 46.2158L22.2764 46.213ZM30.3872 37.4458L37.919 25.5013C38.0159 25.3489 38.2763 25.4376 38.2375 25.6065L35.5921 37.8031C35.545 38.0164 35.3373 38.166 35.0963 38.1632L30.8248 38.1161C30.4398 38.1106 30.1988 37.7422 30.3872 37.443V37.4458ZM6.48431 46.1853L9.86656 47.1216C10.1907 47.2019 10.5369 47.0634 10.6422 46.8114L15.5369 35.1799C15.6089 35.0109 15.7889 34.8973 15.9912 34.8918C23.1379 34.6896 29.3069 31.9001 31.6476 26.3378C34.3871 19.8309 29.678 17.9833 23.498 17.8642C21.9274 17.8642 20.7778 17.7894 19.2211 17.9528C18.3042 18.1135 17.5064 18.3988 17.2211 19.0775L6.07434 45.5621C5.96354 45.8224 6.14913 46.105 6.48431 46.1881V46.1853ZM16.9967 31.7173L21.7363 20.4598C21.8111 20.2825 22.005 20.1634 22.2183 20.1717C26.8387 20.3074 28.4315 22.4819 26.7473 26.4819C25.2432 30.0525 21.2183 32.0968 17.5064 32.3267C17.1407 32.3489 16.8693 32.022 16.9967 31.7173ZM41.3622 47.4374L44.7444 48.3737C45.0685 48.454 45.4148 48.3155 45.52 48.0634L50.4147 36.4319C50.4867 36.263 50.6668 36.1494 50.869 36.1438C58.0158 35.9416 64.1847 33.1522 66.5254 27.5899C69.265 21.083 64.5559 19.2354 58.3759 19.1163C56.8053 19.1163 55.6557 19.0415 54.0989 19.2049C53.182 19.3656 52.3842 19.6509 52.0989 20.3296L40.9522 46.8141C40.8414 47.0745 41.027 47.3571 41.3622 47.4402V47.4374ZM51.8745 32.9694L56.6141 21.7118C56.6889 21.5345 56.8828 21.4154 57.0961 21.4237C61.7166 21.5595 63.3094 23.734 61.6252 27.7339C60.121 31.3045 56.0961 33.3489 52.3842 33.5788C52.0186 33.6009 51.7471 33.2741 51.8745 32.9694ZM150.788 22.0442L147.079 20.8863C146.796 20.7977 146.5 20.8947 146.328 21.1356C145.187 22.7478 143.469 25.1439 139.547 30.673C139.3 30.5871 139.051 30.4985 138.796 30.4098C136.328 29.54 135.625 26.7506 135.439 25.6259C135.389 25.3323 135.181 25.0885 134.913 24.9999L130.486 23.5761C130.298 23.5151 130.098 23.5428 129.938 23.6481C126.458 25.9417 123.054 27.155 119.716 26.0747C119.45 25.9888 119.173 26.0802 119.015 26.3101L118.173 27.529C117.885 27.9445 118.115 28.5705 118.6 28.6979C122.96 29.8697 126.561 28.8614 131.037 26.3074C131.414 26.0941 131.896 26.3129 132.043 26.7644C133.226 30.3877 134.968 32.1937 137.672 33.3156C135.719 36.0691 134.084 38.371 133.342 39.4125C129.314 43.8806 122.547 50.1382 118.985 52.0634C117.971 52.6119 117.112 52.3376 116.899 52.2518C116.869 52.2407 116.841 52.2268 116.813 52.2102C116.431 51.9941 116.074 51.4955 115.999 50.7338C115.871 49.4485 115.722 47.0136 116.572 44.1327C116.664 43.8197 116.943 43.6341 117.254 43.6867C121.943 44.4623 126.481 43.5732 130.19 39.0801C131.287 37.7505 132.123 35.54 132.605 33.8031C132.904 32.7284 132.281 31.5428 131.242 31.2048L129.686 30.6979C128.877 30.4347 128.048 30.2824 127.223 30.2713C123.968 30.227 118.511 31.3655 114.442 37.2214C113.605 38.4236 112.971 39.6784 112.478 40.9277L112.467 40.8917C109.833 43.997 106.556 47.5925 104.376 49.9526C103.869 50.5011 103.007 49.7532 103.326 49.0468C103.891 47.8058 104.644 46.3238 105.611 44.756C108.245 40.4956 113.303 32.9832 114.918 30.6148C115.19 30.2159 114.988 29.6204 114.531 29.468L111.115 28.324C110.855 28.2353 110.583 28.324 110.428 28.5539C109.387 30.083 105.043 36.515 102.985 39.5178C99.8354 44.1133 97.8853 47.7698 96.5307 51.7947C96.4033 52.177 96.6138 52.6313 96.9795 52.7642L101.788 54.5454C102.015 54.6285 102.254 54.5731 102.412 54.4013C103.45 53.2573 107.514 48.7698 111.478 44.2186C110.736 47.6368 110.905 50.6091 111.018 51.7587C111.049 52.0634 111.248 52.3293 111.517 52.4263L118.168 54.8445C118.342 54.9082 118.525 54.8944 118.677 54.8058C119.647 54.2379 123.494 51.8446 128.683 46.864C127.769 48.623 127.012 50.3487 126.386 52.1437C126.248 52.5426 126.472 53.0163 126.868 53.1576L132.104 55.0301C132.317 55.1077 132.542 55.0717 132.71 54.9387C133.971 53.9332 139.475 49.4568 144.156 44.3238C144.392 44.0635 144.395 43.6424 144.165 43.3405L143.907 43.0025C143.627 42.6341 143.123 42.5842 142.838 42.9C139.968 46.0662 136.6 49.1465 134.447 51.0329C133.891 51.5232 133.035 50.7781 133.348 50.0745C133.979 48.6507 134.904 46.8141 136.165 44.8502C137.381 42.9554 139.979 39.1881 142.857 35.0718C145.821 35.9749 148.107 36.515 149.015 36.72C149.275 36.7782 149.536 36.684 149.694 36.4735L150.588 35.274C150.901 34.8558 150.672 34.2048 150.156 34.0525C147.968 33.407 146.251 32.8863 144.727 32.4043C148.561 26.9472 149.719 25.3212 151.198 23.2409C151.497 22.8226 151.275 22.1966 150.78 22.0415L150.788 22.0442ZM118.525 39.8059C118.675 39.5704 118.83 39.3322 118.996 39.0967C121.902 34.9361 125.904 32.432 129.561 31.9472C129.957 31.8946 130.292 32.2602 130.234 32.6896C130.043 34.0774 129.425 35.9499 128.107 37.4208C124.982 40.9056 121.863 41.3516 119.057 40.9748C118.539 40.9056 118.242 40.2546 118.525 39.8086V39.8059ZM111.611 26.0193L112.47 24.7118C112.622 24.4791 112.893 24.3794 113.157 24.4625L116.888 25.6093C117.351 25.7506 117.561 26.3517 117.292 26.7561L116.425 28.0691C116.27 28.3018 115.999 28.3988 115.733 28.3184L112.013 27.1605C111.556 27.0193 111.348 26.4237 111.614 26.0193H111.611ZM110.42 56.4179C109.968 56.2517 109.772 55.6451 110.04 55.2573L110.918 54.0024C111.074 53.7808 111.348 53.6977 111.605 53.7919L115.874 55.357C116.334 55.526 116.533 56.1354 116.259 56.526L115.37 57.7863C115.212 58.008 114.938 58.0911 114.675 57.9941L110.42 56.4179ZM57.0795 13.3878C56.8523 13.4958 56.6003 13.3518 56.5366 13.0803L56.0075 10.7867C55.9548 10.5595 56.0518 10.3158 56.2374 10.2161C67.8163 3.96126 80.5364 3.9945 87.3036 11.446C91.8798 16.4847 93.877 24.0747 86.1624 50.2684C86.0848 50.5288 86.2122 50.8141 86.4421 50.9027C86.6333 50.9748 86.841 50.8917 86.9463 50.6978L103.398 14.8005C103.506 14.6011 103.722 14.5069 103.921 14.5706L110.963 16.9113C111.267 17.011 111.384 17.4182 111.19 17.7008L88.5889 54.8141C88.4781 54.9775 88.287 55.0412 88.1097 54.9747L80.1818 52.0828C79.9464 51.9941 79.8245 51.6977 79.9076 51.4374C87.7856 27.227 87.8687 17.3268 82.3009 12.5568C77.9187 8.80056 68.7442 7.82273 57.074 13.385L57.0795 13.3878ZM72.2899 55.4484H5.12144C4.45385 55.4484 3.87214 55.2573 4.02449 55.0855L5.31257 53.6202C5.39568 53.526 5.6893 53.465 6.05772 53.465H73.2262C73.8938 53.465 74.4755 53.6562 74.3231 53.8279L73.035 55.2933C72.952 55.3875 72.6583 55.4484 72.2899 55.4484ZM72.2899 51.9H5.12144C4.45385 51.9 3.87214 51.7088 4.02449 51.5371L5.31257 50.0717C5.39568 49.9775 5.6893 49.9166 6.05772 49.9166H73.2262C73.8938 49.9166 74.4755 50.1077 74.3231 50.2795L73.035 51.7448C72.952 51.839 72.6583 51.9 72.2899 51.9Z" fill="url(#paint0_linear_223_16)"/>
<defs>
<linearGradient id="paint0_linear_223_16" x1="102.858" y1="-5.64532" x2="51.7942" y2="82.7972" gradientUnits="userSpaceOnUse">
<stop stop-color="#EDC652"/>
<stop offset="0.5" stop-color="#F9F4CC"/>
<stop offset="0.57" stop-color="#F3EBBA"/>
<stop offset="0.72" stop-color="#E5D38E"/>
<stop offset="0.73" stop-color="#E4D28B"/>
<stop offset="1" stop-color="#B58C41"/>
</linearGradient>
</defs>
</svg>
