<svg width="71" height="69" viewBox="0 0 71 69" fill="none" xmlns="http://www.w3.org/2000/svg">
<path d="M0.0407715 35.1848L5.55698 36.6416L5.72259 38.2617L0.614049 40.7358L0.461175 39.2162L3.73523 37.6338L0.193645 36.7044L0.0407715 35.1848Z" fill="#811719"/>
<path d="M0.155273 34.2304L0.193492 32.8112L5.53135 32.9619L5.49313 34.3811L0.155273 34.2304Z" fill="#811719"/>
<path d="M0.81784 27.5616L2.28288 27.7625L1.86248 30.7264L2.4485 30.8143L2.74151 28.7923L3.91354 28.9556L3.62053 30.9776L4.20655 31.0529L4.62695 28.0891L6.092 28.29L5.46776 32.6605L0.193604 31.9321L0.81784 27.5616Z" fill="#811719"/>
<path d="M2.43573 22.1487L3.84981 22.5883L3.37845 24.0828L7.04743 25.2257L6.61429 26.582L2.93257 25.4392L2.46121 26.9336L1.04712 26.4941L2.43573 22.1487Z" fill="#811719"/>
<path d="M4.84357 17.2382L9.60814 19.5993L9.03486 20.7421L5.99012 21.144L8.25775 22.2617L7.62078 23.5302L2.8562 21.1691L3.42948 20.0263L6.47422 19.637L4.20659 18.5192L4.84357 17.2508V17.2382Z" fill="#811719"/>
<path d="M7.64636 13.2822L13.0989 14.8772L12.1689 16.0954L11.4045 15.8693L10.1943 17.4643L10.6147 18.1299L9.68468 19.3481L6.6272 14.5883L7.62088 13.2822H7.64636ZM9.36619 16.1456L9.90125 15.4298L8.67826 15.0656L9.36619 16.1331V16.1456Z" fill="#811719"/>
<path d="M13.7231 7.21631L17.2901 11.1347L16.22 12.0891L14.4238 10.1174L14.7422 12.378L12.5001 11.8379L14.2964 13.8097L13.2262 14.7642L9.65918 10.8458L10.7038 9.92901L13.0224 10.4816L12.7039 8.14566L13.7486 7.21631H13.7231Z" fill="#811719"/>
<path d="M18.5257 4.21478L19.3028 5.4581L16.7294 7.04051L17.0479 7.54287L18.8059 6.46281L19.4302 7.45496L17.6721 8.53501L17.9779 9.03737L20.5513 7.45496L21.3284 8.69828L17.5192 11.0217L14.7166 6.53816L18.5257 4.21478Z" fill="#811719"/>
<path d="M22.3348 6.21161C21.4813 6.5507 20.5003 6.13626 20.1436 5.2697C19.7869 4.4157 20.1818 3.43611 21.0354 3.09703L23.7107 2.01697L24.2712 3.37332L21.5959 4.44082C21.4813 4.49105 21.4303 4.61664 21.4813 4.72967C21.5322 4.8427 21.6596 4.89294 21.7615 4.85526L23.1629 4.29011C24.0164 3.95102 24.9974 4.36547 25.3541 5.23202C25.7108 6.08602 25.3031 7.06561 24.4623 7.4047L21.787 8.48475L21.2265 7.1284L23.9018 6.0609C24.0164 6.01067 24.0674 5.88508 24.0164 5.77205C23.9655 5.65902 23.8381 5.60879 23.7362 5.64646L22.3348 6.21161Z" fill="#811719"/>
<path d="M29.3415 0.622957L29.6728 2.0421L26.7299 2.70772L26.8701 3.27287L28.8829 2.82075L29.1504 3.9636L27.1376 4.41572L27.265 4.98086L30.2078 4.31525L30.539 5.73439L26.1949 6.71398L24.9846 1.57743L29.3288 0.597839L29.3415 0.622957Z" fill="#811719"/>
<path d="M38.8708 3.98872C38.8198 4.91807 38.0427 5.62136 37.1254 5.57113L34.3228 5.42042L34.6158 0.170837L37.4185 0.321543C38.3357 0.371778 39.0236 1.16298 38.9727 2.07978C38.9599 2.41886 38.8325 2.73283 38.6287 3.00913C38.8071 3.31054 38.8835 3.62451 38.858 3.97616L38.8708 3.98872ZM37.1764 4.16454C37.3165 4.16454 37.4439 4.05151 37.4567 3.88825C37.4567 3.72498 37.3548 3.58683 37.2146 3.58683L35.8642 3.51148L35.826 4.08919L37.1764 4.16454ZM35.9279 2.2556L37.2783 2.33095C37.4185 2.33095 37.5459 2.21792 37.5586 2.05466C37.5586 1.89139 37.4567 1.75325 37.3165 1.74069L35.9662 1.66534L35.9279 2.24304V2.2556Z" fill="#811719"/>
<path d="M44.5145 1.51466L44.196 2.94637L41.2404 2.30587L41.113 2.87102L43.1258 3.31058L42.8711 4.45343L40.8582 4.01387L40.7308 4.59157L43.6864 5.23207L43.3679 6.66378L39.011 5.70931L40.1448 0.572754L44.5017 1.52722L44.5145 1.51466Z" fill="#811719"/>
<path d="M49.7375 3.4487L49.1897 4.80505L46.3743 3.69988L46.1577 4.23991L48.0814 4.99343L47.6482 6.08605L45.7246 5.33252L45.508 5.87255L48.3234 6.97773L47.7756 8.33408L43.6226 6.71399L45.5844 1.82861L49.7375 3.4487Z" fill="#811719"/>
<path d="M54.5914 6.1614L53.8397 7.41729L51.2409 5.89767L50.9351 6.40002L52.7187 7.4424L52.1072 8.44711L50.3236 7.40473L49.2663 9.16296L48.0305 8.43455L50.7568 3.90082L54.6041 6.14884L54.5914 6.1614Z" fill="#811719"/>
<path d="M55.8142 14.0483L54.8206 13.0185L58.6934 9.41412L60.4259 11.2226C61.1648 11.9887 61.1139 13.2194 60.3113 13.973C59.5087 14.7139 58.2602 14.7014 57.5213 13.9227L56.7824 13.1441L55.8142 14.0483ZM57.8526 12.1519L58.5915 12.9306C58.7825 13.1315 59.101 13.1315 59.3176 12.9306C59.5214 12.7422 59.5342 12.4157 59.3431 12.2147L58.6042 11.4361L57.8526 12.1394V12.1519Z" fill="#811719"/>
<path d="M65.1396 17.3513L60.7062 20.2901L59.9036 19.1095L61.5088 18.0546L60.4642 16.5224L58.859 17.5774L58.0564 16.3968L62.4897 13.4581L63.2923 14.6386L61.6872 15.6935L62.7318 17.2383L64.337 16.1833L65.1396 17.3639V17.3513Z" fill="#811719"/>
<path d="M66.2352 23.4549C65.9932 23.706 65.7002 23.9195 65.3435 24.0702C63.9931 24.6605 62.4389 24.0702 61.8656 22.7892C61.2923 21.4957 61.9166 19.9761 63.2542 19.3858C64.6046 18.7955 66.1588 19.3858 66.7321 20.6668C67.1525 21.5961 66.9359 22.6385 66.2989 23.3795L68.0188 22.9902L68.0825 23.2288L66.2735 23.6307L66.2352 23.4549ZM64.7702 22.7767C65.369 22.5129 65.6492 21.8348 65.3944 21.2571C65.1396 20.6794 64.439 20.4282 63.8402 20.6919C63.2415 20.9556 62.9612 21.6338 63.216 22.2115C63.4708 22.7892 64.1714 23.0404 64.7702 22.7767ZM67.9041 19.7123C68.1589 19.6746 68.4774 19.75 68.5921 20.0137C68.8468 20.9305 67.4837 20.3026 67.0378 20.717L66.9487 20.4784C67.3181 20.1268 68.9742 20.2649 67.8659 20.0012L67.9041 19.7123Z" fill="#811719"/>
<path d="M8.84365 54.8393C8.06654 55.3668 7.0219 55.191 6.51232 54.4374L4.93262 52.1517L9.32775 49.1753L10.9074 51.461C11.417 52.202 11.2132 53.2318 10.4361 53.7593C10.1431 53.9602 9.82459 54.0481 9.48062 54.0607C9.35323 54.3746 9.13666 54.6384 8.85639 54.8393H8.84365ZM7.67161 53.6211C7.74805 53.7341 7.9264 53.7593 8.06654 53.6713C8.20667 53.5834 8.24489 53.4076 8.15571 53.2946L7.39134 52.1894L6.90724 52.5159L7.67161 53.6211ZM8.44872 51.4736L9.21309 52.5787C9.28953 52.6918 9.46788 52.7169 9.60802 52.629C9.74815 52.5411 9.78637 52.3652 9.70993 52.2522L8.94556 51.147L8.46146 51.4736H8.44872Z" fill="#811719"/>
<path d="M14.9967 56.1454L13.9266 57.1501L11.8501 54.9774L11.4169 55.3793L12.8438 56.8612L11.9775 57.665L10.5507 56.183L10.1175 56.5849L12.1941 58.7576L11.1239 59.7623L8.05371 56.5472L11.9265 52.9429L14.9967 56.1579V56.1454Z" fill="#811719"/>
<path d="M14.3089 59.8754C13.5827 59.3228 13.4553 58.2804 14.0286 57.552C14.6019 56.811 15.6593 56.6603 16.3854 57.2129L18.6658 58.9335L17.7613 60.0889L15.4809 58.3683C15.3918 58.293 15.2516 58.3181 15.1752 58.4185C15.0987 58.5065 15.1242 58.6446 15.2134 58.72L16.4109 59.6242C17.1371 60.1768 17.2645 61.2192 16.6784 61.9476C16.0924 62.676 15.0478 62.8392 14.3216 62.2867L12.0413 60.5535L12.9458 59.3981L15.2261 61.1312C15.3153 61.2066 15.4554 61.1815 15.5319 61.081C15.6083 60.9931 15.5828 60.855 15.4937 60.7796L14.2962 59.8754H14.3089Z" fill="#811719"/>
<path d="M23.061 61.2945L22.3603 62.5881L20.959 61.8471L19.1372 65.2129L17.8633 64.5347L19.685 61.1689L18.2837 60.428L18.9844 59.1344L23.0483 61.282L23.061 61.2945Z" fill="#811719"/>
<path d="M29.1123 63.1909L28.7046 64.5975L25.7873 63.7811L25.6217 64.3463L27.6218 64.8989L27.3033 66.0292L25.3032 65.464L24.7299 67.4358L23.3413 67.0464L24.8064 61.9852L29.1123 63.1909Z" fill="#811719"/>
<path d="M29.9532 68.6038L28.5264 68.428L29.1761 63.2035L31.673 63.5049C32.7431 63.6305 33.4948 64.6101 33.3674 65.7027C33.2782 66.3934 32.8451 66.9837 32.2336 67.26L32.9597 68.9554L31.3036 68.7545L30.7048 67.3605L30.1315 67.2851L29.9659 68.5912L29.9532 68.6038ZM30.2972 65.8534L31.3673 65.979C31.6475 66.0167 31.8896 65.8157 31.9278 65.5269C31.966 65.2506 31.7622 64.9994 31.4947 64.9617L30.4246 64.8361L30.2972 65.8534Z" fill="#811719"/>
<path d="M36.5521 68.9303C35.1125 68.9931 33.9022 67.8628 33.8386 66.4185C33.7749 64.9743 34.8832 63.7309 36.3228 63.6681C37.7496 63.6054 38.9726 64.7356 39.0363 66.1799C39.1 67.6367 37.9916 68.8675 36.5521 68.9303ZM36.3865 65.125C35.7495 65.1501 35.2526 65.7027 35.2781 66.3432C35.3036 66.9837 35.8514 67.486 36.4884 67.4609C37.1253 67.4358 37.6222 66.8832 37.5967 66.2427C37.5712 65.6022 37.0234 65.0998 36.3865 65.125Z" fill="#811719"/>
<path d="M44.3231 62.3495L45.5333 67.4735L44.1192 67.7874L43.5077 65.2003L42.6797 67.3228L40.9726 65.778L41.5841 68.3651L40.17 68.6791L38.9597 63.5551L40.3228 63.2411L42.0809 64.8361L42.9472 62.6509L44.3231 62.3369V62.3495Z" fill="#811719"/>
<path d="M49.6483 65.8031L48.3489 66.4185L46.0176 61.6838L48.298 60.6038C49.2662 60.1391 50.4509 60.5661 50.935 61.5457C51.4191 62.5253 51.0242 63.6932 50.056 64.1579L49.0751 64.6226L49.6611 65.8031H49.6483ZM48.4126 63.3039L49.3935 62.8392C49.6483 62.7136 49.7503 62.4122 49.6229 62.1611C49.4955 61.9099 49.1897 61.7969 48.9349 61.9224L47.954 62.3871L48.4126 63.3039Z" fill="#811719"/>
<path d="M52.362 58.1674L56.9991 61.4326L55.7252 62.2866L55.0755 61.8345L53.4066 62.9523L53.5849 63.7183L52.2983 64.5723L50.9861 59.0842L52.362 58.1674ZM53.0371 61.4326L53.7888 60.9303L52.7441 60.1893L53.0371 61.4326Z" fill="#811719"/>
<path d="M58.7699 59.8L57.738 60.7922L54.0308 57.0245L55.8525 55.2914C56.6296 54.5504 57.8781 54.5881 58.6425 55.3667C59.4068 56.1454 59.4068 57.3762 58.6297 58.1171L57.8526 58.8581L58.7826 59.8H58.7699ZM56.8207 57.8032L57.5978 57.0622C57.8017 56.8738 57.8017 56.5473 57.5978 56.3463C57.4067 56.1454 57.0755 56.1328 56.8717 56.3212L56.0946 57.0622L56.8207 57.7906V57.8032Z" fill="#811719"/>
<path d="M58.9481 51.7121L64.3624 53.3825L63.4197 54.5881L62.6681 54.3621L61.4323 55.9319L61.84 56.5975L60.8973 57.8032L57.929 52.9931L58.9354 51.6996L58.9481 51.7121ZM60.617 54.6007L61.1648 53.8974L59.9418 53.5206L60.6043 54.6007H60.617Z" fill="#811719"/>
<path d="M63.3176 43.5615L67.407 47.4798L66.7446 48.9743L61.0627 48.6855L61.6742 47.2914L65.3177 47.4798L62.6934 44.9681L63.3176 43.5615Z" fill="#811719"/>
<path d="M63.2415 43.3354L63.6491 41.9665L68.7704 43.4484L68.3627 44.8173L63.2415 43.3354Z" fill="#811719"/>
<path d="M63.165 39.5176L64.1715 38.2868L64.3243 38.4752L63.458 39.5552L63.8912 40.8111L63.7001 40.9242L63.165 39.505V39.5176ZM64.5536 37.4956L66.006 37.7593L65.4709 40.6855L66.0569 40.786L66.4264 38.7892L67.5984 39.0027L67.2289 40.9995L67.815 41.1L68.35 38.1738L69.8151 38.4375L69.0252 42.7577L63.7765 41.8158L64.5664 37.4956H64.5536ZM69.5093 41.5647L69.8405 39.7311L70.1463 39.7813L69.8151 41.6149L69.5093 41.5647Z" fill="#811719"/>
<path d="M64.6555 32.8112L66.1333 32.8363L66.1078 34.3936L69.9679 34.4689L69.9424 35.8881L66.0824 35.8253L66.0569 37.3826L64.5791 37.3574L64.6555 32.8112Z" fill="#811719"/>
</svg>
