<svg width="192" height="192" viewBox="0 0 192 192" fill="none" xmlns="http://www.w3.org/2000/svg">
<g clip-path="url(#clip0_216_90337)">
<path d="M35.7088 22.2292C36.0987 21.7305 36.6169 21.2071 37.3053 20.6763C38.2751 19.9307 39.2695 19.5382 40.2393 19.6666C41.14 19.7703 41.9963 20.3332 42.6946 21.2417C43.4398 22.2119 43.7112 23.0513 43.7137 23.8957C43.7359 25.1251 43.0672 26.2608 42.127 26.9842C41.9247 27.1397 41.7668 27.2607 41.5817 27.3767L44.9031 31.6996L43.6989 32.6254L35.7112 22.2267L35.7088 22.2292ZM40.7995 26.3596C40.9648 26.283 41.1005 26.2016 41.3053 26.046C42.4947 25.1301 42.6921 23.7352 41.5496 22.2465C40.7205 21.1651 39.5188 20.5455 38.1887 21.5676C37.9074 21.7848 37.6952 21.9971 37.5768 22.1626L40.8019 26.3596H40.7995Z" fill="white"/>
<path d="M48.4713 24.1845L49.863 28.0284L48.6292 28.8135L44.0542 15.9485L45.4706 15.0474L55.1116 24.6906L53.8457 25.4954L50.9562 22.6069L48.4737 24.187L48.4713 24.1845ZM50.1295 21.6786L47.7334 19.1999C47.0573 18.5062 46.3146 17.6668 45.6508 16.9187L45.5842 16.9607C45.9913 17.8964 46.4404 18.9679 46.7661 19.8147L47.995 23.0365L50.127 21.6786H50.1295Z" fill="white"/>
<path d="M50.8649 12.1045C51.3411 11.6898 51.9506 11.2726 52.7279 10.8849C53.8235 10.3369 54.8723 10.1418 55.8001 10.4504C56.6662 10.7245 57.3991 11.438 57.9099 12.4625C58.4577 13.5587 58.5638 14.4327 58.4059 15.2622C58.1937 16.4719 57.3201 17.4619 56.2615 17.9927C56.032 18.1087 55.8544 18.1951 55.652 18.2766L58.09 23.1501L56.7304 23.8315L50.8624 12.1045H50.8649ZM55.0795 17.1286C55.2572 17.0842 55.4053 17.0323 55.6348 16.9163C56.9771 16.2448 57.4337 14.9116 56.5947 13.2328C55.9852 12.0132 54.9241 11.1763 53.4238 11.9268C53.1055 12.0848 52.8587 12.2551 52.7082 12.3959L55.0771 17.1286H55.0795Z" fill="white"/>
<path d="M63.0179 16.4522L63.6496 20.4912L62.2899 21.0269L60.2492 7.52489L61.8112 6.91016L69.4361 18.2149L68.0395 18.7655L65.752 15.3782L63.0154 16.4546L63.0179 16.4522ZM65.1227 14.3068L63.2449 11.4158C62.7144 10.606 62.1443 9.64068 61.636 8.78153L61.562 8.81115C61.7841 9.80609 62.0185 10.9442 62.1789 11.8355L62.7711 15.2301L65.1227 14.3043V14.3068Z" fill="white"/>
<path d="M75.9852 16.3731L69.9297 4.13517L71.504 3.75744L74.2233 9.52461C74.8797 10.9121 75.7088 12.6822 76.3356 14.2796L76.3923 14.2648C76.1851 12.5465 76.116 10.6553 76.0567 9.04319L75.8421 2.71806L77.4164 2.34033L77.5003 16.0102L75.9827 16.3731H75.9852Z" fill="white"/>
<path d="M81.6681 1.68115L83.7483 14.8276L82.248 15.0647L80.1678 1.91816L81.6681 1.68115Z" fill="white"/>
<path d="M90.702 7.72475L87.3782 8.01607L87.8149 12.9932L91.5904 12.6624L91.7064 13.9808L86.4158 14.4449L85.2535 1.18236L90.3072 0.737976L90.4232 2.05633L86.8822 2.3674L87.2647 6.73475L90.5885 6.44343L90.6996 7.72228L90.702 7.72475Z" fill="white"/>
<path d="M94.934 1.99223L92.5059 2.03173L92.4836 0.668937L98.86 0.565247L98.8822 1.92804L96.454 1.96754L96.649 13.9142L95.1289 13.9389L94.934 1.99223Z" fill="white"/>
<path d="M108.701 9.06295L108.56 10.2406L104.267 9.72707L104.407 8.54944L108.701 9.06295Z" fill="white"/>
<path d="M116.619 3.01186C117.251 3.00693 117.984 3.09087 118.825 3.30072C120.012 3.59944 120.935 4.13518 121.439 4.97458C121.917 5.74732 122.006 6.76695 121.727 7.87792C121.429 9.06542 120.94 9.79866 120.279 10.3245C119.331 11.1047 118.023 11.2849 116.874 10.996C116.624 10.9343 116.432 10.8849 116.227 10.8134L114.899 16.1016L113.426 15.7313L116.619 3.01186ZM116.54 9.56906C116.703 9.65053 116.851 9.70732 117.101 9.77151C118.556 10.1369 119.773 9.4234 120.23 7.60388C120.56 6.28306 120.304 4.95483 118.677 4.54747C118.332 4.46106 118.036 4.4265 117.831 4.43638L116.543 9.56906H116.54Z" fill="white"/>
<path d="M122.998 14.2376L120.846 17.7113L119.467 17.2298L126.719 5.66339L128.304 6.21641L126.717 19.7604L125.3 19.2666L125.774 15.2079L122.998 14.2376ZM125.991 13.9858L126.45 10.5689C126.576 9.60857 126.774 8.50501 126.949 7.52242L126.875 7.49526C126.394 8.39391 125.831 9.41107 125.37 10.1912L123.605 13.1513L125.991 13.9833V13.9858Z" fill="white"/>
<path d="M133.962 8.63091C134.584 8.74695 135.287 8.96914 136.072 9.337C137.18 9.85792 137.984 10.5615 138.315 11.4799C138.635 12.3292 138.529 13.3488 138.043 14.3857C137.523 15.4942 136.903 16.1189 136.153 16.5089C135.072 17.094 133.754 17.02 132.684 16.5163C132.452 16.4077 132.271 16.3238 132.084 16.2127L129.772 21.1479L128.395 20.501L133.959 8.62598L133.962 8.63091ZM132.632 15.0523C132.775 15.1634 132.911 15.2474 133.143 15.3585C134.5 15.9954 135.832 15.5288 136.627 13.8303C137.204 12.5958 137.207 11.2454 135.687 10.5319C135.366 10.3813 135.08 10.29 134.875 10.2603L132.629 15.0523H132.632Z" fill="white"/>
<path d="M138.075 20.8689L135.299 23.8685L134.036 23.1328L143.363 13.1637L144.814 14.008L140.674 27.0015L139.378 26.246L140.619 22.3502L138.078 20.8689H138.075ZM141.064 21.1923L142.167 17.9261C142.473 17.0077 142.877 15.9633 143.238 15.0301L143.168 14.9906C142.524 15.7807 141.779 16.6719 141.177 17.3508L138.88 19.9209L141.064 21.1948V21.1923Z" fill="white"/>
<path d="M146.184 31.0034L152.017 18.6568L153.291 19.6567L150.46 25.3695C149.782 26.7447 148.908 28.4951 148.044 29.9764L148.091 30.0134C149.308 28.7839 150.749 27.5569 151.973 26.5101L156.797 22.4144L158.07 23.4142L147.41 31.9638L146.184 30.9985V31.0034Z" fill="white"/>
<path d="M161.217 26.3299L152.212 36.1312L151.092 35.1017L160.096 25.3004L161.217 26.3299Z" fill="white"/>
<path d="M162.098 37.168L159.803 34.7436L156.175 38.1803L158.781 40.933L157.821 41.844L154.169 37.9852L163.83 28.8308L167.319 32.5168L166.359 33.4278L163.916 30.8454L160.733 33.8598L163.028 36.2842L162.095 37.168H162.098Z" fill="white"/>
<path d="M169.377 37.0965L167.867 35.193L168.933 34.3462L172.898 39.3431L171.832 40.1899L170.322 38.2864L160.967 45.7151L160.022 44.5227L169.377 37.094V37.0965Z" fill="white"/>
<path d="M172.23 52.1217L171.22 52.7414L168.96 49.053L169.969 48.4333L172.23 52.1217Z" fill="white"/>
<path d="M181.88 54.5708C182.275 55.0646 182.665 55.6892 183.023 56.4817C183.526 57.5976 183.677 58.6567 183.331 59.5702C183.023 60.4244 182.28 61.128 181.234 61.5971C180.119 62.1007 179.24 62.1699 178.418 61.9773C177.219 61.7181 176.267 60.8046 175.778 59.7233C175.672 59.4887 175.59 59.3085 175.521 59.1036L170.554 61.3428L169.93 59.9553L181.88 54.5684V54.5708ZM176.691 58.5777C176.728 58.7555 176.775 58.9086 176.881 59.1431C177.498 60.5108 178.811 61.0243 180.521 60.2541C181.762 59.6936 182.643 58.6691 181.954 57.1384C181.809 56.815 181.651 56.5607 181.515 56.4052L176.691 58.5802V58.5777Z" fill="white"/>
<path d="M177.041 66.5471L172.982 67.0137L172.503 65.6336L186.07 64.1474L186.621 65.7349L175.018 72.8944L174.527 71.4749L178.004 69.3295L177.041 66.5496V66.5471ZM179.097 68.7394L182.061 66.9816C182.892 66.4854 183.877 65.9546 184.758 65.4806L184.733 65.4065C183.729 65.5867 182.584 65.7768 181.685 65.8978L178.27 66.3496L179.097 68.7394Z" fill="white"/>
<path d="M188.237 71.665C188.531 72.2254 188.795 72.9142 188.992 73.7585C189.271 74.951 189.219 76.0175 188.703 76.8495C188.237 77.6297 187.373 78.1777 186.258 78.4394C185.066 78.7209 184.193 78.6221 183.42 78.274C182.293 77.7877 181.533 76.7088 181.261 75.5558C181.202 75.3065 181.157 75.1139 181.128 74.8967L175.822 76.1434L175.475 74.6621L188.235 71.66L188.237 71.665ZM182.376 74.6053C182.376 74.788 182.396 74.946 182.455 75.1954C182.798 76.6569 183.99 77.4099 185.816 76.9828C187.141 76.6717 188.202 75.8323 187.82 74.198C187.739 73.8524 187.632 73.5734 187.529 73.3931L182.379 74.6053H182.376Z" fill="white"/>
<path d="M181.197 82.4883L177.125 82.1698L176.921 80.7231L190.52 81.8587L190.756 83.5203L178.004 88.3295L177.792 86.8433L181.614 85.4015L181.199 82.4883H181.197ZM182.796 85.0337L186.041 83.8733C186.951 83.545 188.02 83.2117 188.975 82.9154L188.965 82.8364C187.946 82.8216 186.786 82.787 185.88 82.7376L182.441 82.5303L182.796 85.0337Z" fill="white"/>
<path d="M178.275 95.104L191.529 91.8476L191.556 93.4671L185.34 94.8719C183.845 95.2126 181.937 95.6372 180.244 95.9039V95.9631C181.967 96.1335 183.827 96.4766 185.412 96.768L191.63 97.9308L191.657 99.5503L178.305 96.6667L178.28 95.1064L178.275 95.104Z" fill="white"/>
<path d="M191.285 104.026L178.014 103.061L178.125 101.545L191.396 102.51L191.285 104.026Z" fill="white"/>
<path d="M183.346 111.45L183.82 108.147L178.875 107.438L178.337 111.193L177.027 111.006L177.779 105.747L190.951 107.633L190.233 112.657L188.923 112.47L189.426 108.952L185.088 108.329L184.615 111.633L183.344 111.45H183.346Z" fill="white"/>
<path d="M187.921 117.116L188.474 114.751L189.801 115.062L188.348 121.274L187.02 120.962L187.576 118.597L175.946 115.872L176.291 114.39L187.921 117.116Z" fill="white"/>
<path d="M177.905 128.68L176.795 128.27L178.285 124.211L179.396 124.621L177.905 128.68Z" fill="white"/>
<path d="M181.962 137.785C181.819 138.402 181.57 139.096 181.17 139.866C180.605 140.953 179.869 141.728 178.937 142.022C178.075 142.308 177.064 142.16 176.047 141.632C174.961 141.066 174.362 140.422 174.004 139.656C173.466 138.553 173.592 137.239 174.137 136.188C174.256 135.961 174.347 135.785 174.465 135.6L169.631 133.087L170.332 131.736L181.962 137.785ZM175.603 136.193C175.487 136.331 175.396 136.464 175.277 136.691C174.586 138.022 174.996 139.373 176.661 140.237C177.871 140.866 179.22 140.923 179.993 139.432C180.158 139.116 180.259 138.834 180.296 138.632L175.603 136.19V136.193Z" fill="white"/>
<path d="M169.572 141.397L166.69 138.501L167.477 137.269L177.054 146.996L176.151 148.411L163.344 143.742L164.151 142.478L167.988 143.878L169.572 141.399V141.397ZM169.125 144.369L172.343 145.604C173.249 145.947 174.275 146.394 175.191 146.791L175.233 146.725C174.47 146.048 173.611 145.266 172.958 144.638L170.485 142.239L169.125 144.369Z" fill="white"/>
<path d="M172.503 153.356C172.247 153.934 171.872 154.568 171.331 155.25C170.571 156.21 169.7 156.83 168.731 156.943C167.83 157.062 166.865 156.723 165.967 156.012C165.007 155.252 164.54 154.504 164.333 153.684C164.012 152.499 164.388 151.233 165.123 150.302C165.283 150.1 165.404 149.946 165.555 149.788L161.286 146.401L162.231 145.209L172.503 153.356ZM166.561 150.586C166.421 150.699 166.307 150.813 166.147 151.013C165.214 152.188 165.362 153.593 166.833 154.758C167.901 155.605 169.217 155.916 170.258 154.6C170.478 154.321 170.631 154.064 170.707 153.874L166.561 150.586Z" fill="white"/>
<path d="M159.65 154.556L157.367 151.166L158.371 150.107L165.932 161.473L164.777 162.691L153.086 155.679L154.117 154.59L157.621 156.691L159.645 154.556H159.65ZM158.65 157.39L161.574 159.212C162.399 159.721 163.322 160.353 164.148 160.918L164.202 160.861C163.581 160.054 162.887 159.123 162.364 158.382L160.39 155.556L158.65 157.39Z" fill="white"/>
<path d="M147.933 160.135L158.613 168.64L157.347 169.65L152.437 165.586C151.255 164.611 149.75 163.36 148.506 162.182L148.459 162.219C149.377 163.685 150.241 165.369 150.981 166.801L153.863 172.437L152.597 173.447L146.714 161.11L147.933 160.138V160.135Z" fill="white"/>
<path d="M149.041 175.847L141.565 164.836L142.823 163.982L150.3 174.993L149.041 175.847Z" fill="white"/>
<path d="M138.295 174.225L141.18 172.546L138.668 168.226L135.391 170.134L134.724 168.991L139.314 166.32L146.006 177.827L141.621 180.38L140.955 179.237L144.027 177.449L141.824 173.66L138.939 175.338L138.292 174.227L138.295 174.225Z" fill="white"/>
<path d="M136.696 181.323L138.895 180.291L139.474 181.525L133.703 184.238L133.123 183.004L135.321 181.972L130.243 171.159L131.618 170.512L136.696 181.325V181.323Z" fill="white"/>
<path d="M125.641 179.251L125.214 178.145L129.249 176.59L129.676 177.696L125.641 179.251Z" fill="white"/>
<path d="M121.481 188.307C120.923 188.606 120.237 188.877 119.395 189.085C118.206 189.376 117.14 189.334 116.304 188.828C115.521 188.369 114.964 187.51 114.69 186.396C114.399 185.206 114.487 184.33 114.825 183.557C115.299 182.424 116.37 181.651 117.52 181.37C117.769 181.308 117.962 181.261 118.176 181.229L116.879 175.936L118.354 175.573L121.481 188.31V188.307ZM118.485 182.473C118.302 182.478 118.144 182.495 117.895 182.557C116.437 182.915 115.697 184.115 116.143 185.937C116.469 187.26 117.315 188.312 118.946 187.912C119.292 187.828 119.571 187.717 119.748 187.613L118.487 182.473H118.485Z" fill="white"/>
<path d="M110.589 181.37L110.865 177.291L112.308 177.071L111.309 190.689L109.651 190.941L104.718 178.227L106.201 178L107.679 181.809L110.586 181.365L110.589 181.37ZM108.059 182.994L109.251 186.228C109.589 187.137 109.932 188.203 110.236 189.154L110.315 189.142C110.32 188.122 110.342 186.959 110.384 186.055L110.559 182.611L108.062 182.992L108.059 182.994Z" fill="white"/>
<path d="M103.529 191.457C102.927 191.645 102.201 191.781 101.333 191.823C100.111 191.884 99.0697 191.638 98.3467 190.981C97.6657 190.381 97.2807 189.433 97.2264 188.287C97.1672 187.065 97.4214 186.221 97.9001 185.525C98.5811 184.503 99.7779 183.95 100.962 183.89C101.219 183.878 101.416 183.868 101.634 183.878L101.365 178.434L102.882 178.36L103.529 191.457ZM101.695 185.162C101.515 185.132 101.357 185.12 101.101 185.132C99.6027 185.206 98.6453 186.243 98.7391 188.117C98.8057 189.477 99.4374 190.672 101.115 190.591C101.471 190.573 101.764 190.519 101.959 190.45L101.698 185.164L101.695 185.162Z" fill="white"/>
<path d="M94.1617 182.582L95.2005 178.629L96.6613 178.686L93.1154 191.872L91.4374 191.808L88.9871 178.392L90.4874 178.449L91.2227 182.471L94.1617 182.584V182.582ZM91.3732 183.7L91.9359 187.102C92.0963 188.058 92.232 189.169 92.3529 190.161H92.4319C92.6293 189.164 92.8686 188.026 93.0808 187.144L93.9001 183.797L91.3757 183.7H91.3732Z" fill="white"/>
<path d="M82.2357 177.457L82.8945 191.094L81.3004 190.811L81.1129 184.438C81.066 182.905 81.0117 180.95 81.0783 179.237L81.0191 179.227C80.5231 180.883 79.8297 182.646 79.24 184.145L76.9081 190.028L75.314 189.744L80.7008 177.185L82.2357 177.459V177.457Z" fill="white"/>
<path d="M71.1635 188.65L74.5095 175.768L75.9802 176.151L72.6341 189.033L71.1635 188.65Z" fill="white"/>
<path d="M65.298 179.493L68.459 180.557L70.0531 175.822L66.4602 174.612L66.8822 173.358L71.9161 175.052L67.6718 187.668L62.8624 186.048L63.2844 184.794L66.6527 185.927L68.0494 181.772L64.8883 180.708L65.298 179.491V179.493Z" fill="white"/>
<path d="M58.8994 182.96L61.1227 183.935L60.5774 185.184L54.7365 182.624L55.2844 181.375L57.5077 182.35L62.2998 171.406L63.6915 172.015L58.8994 182.96Z" fill="white"/>
<path d="M49.3522 171.013L49.9543 169.993L53.6755 172.196L53.0734 173.215L49.3522 171.013Z" fill="white"/>
<path d="M39.6767 173.363C39.0968 173.111 38.4602 172.741 37.7742 172.208C36.8069 171.457 36.1776 170.593 36.0567 169.623C35.9309 168.724 36.2591 167.754 36.9599 166.848C37.71 165.88 38.4528 165.409 39.2695 165.191C40.4515 164.861 41.7224 165.221 42.6576 165.949C42.8599 166.107 43.0154 166.228 43.1758 166.377L46.5194 162.073L47.7187 163.007L39.6767 173.363ZM42.3886 167.394C42.2726 167.253 42.1591 167.142 41.9568 166.984C40.7723 166.063 39.3707 166.223 38.2208 167.707C37.3843 168.784 37.0857 170.102 38.4108 171.131C38.6921 171.349 38.9488 171.499 39.1412 171.573L42.3886 167.394Z" fill="white"/>
<path d="M38.359 160.52L41.7248 158.205L42.7933 159.2L31.5064 166.875L30.2776 165.732L37.1696 153.968L38.2677 154.99L36.2023 158.516L38.3565 160.52H38.359ZM35.5163 159.548L33.7248 162.491C33.2239 163.32 32.6021 164.251 32.0444 165.08L32.1011 165.135C32.9031 164.505 33.826 163.799 34.5613 163.271L37.367 161.269L35.5163 159.548Z" fill="white"/>
<path d="M26.0678 161.254C25.5447 160.898 24.9894 160.414 24.417 159.76C23.6101 158.839 23.156 157.871 23.2202 156.896C23.2646 155.99 23.7704 155.099 24.6316 154.343C25.5521 153.536 26.3713 153.213 27.2128 153.156C28.4367 153.055 29.6138 153.65 30.396 154.538C30.5663 154.731 30.6946 154.879 30.8229 155.057L34.9191 151.462L35.921 152.605L26.0678 161.254ZM29.8581 155.904C29.7717 155.743 29.6804 155.612 29.5126 155.42C28.5231 154.292 27.1165 154.185 25.7075 155.422C24.6835 156.321 24.1406 157.558 25.2485 158.822C25.483 159.089 25.7075 159.286 25.8827 159.395L29.8605 155.904H29.8581Z" fill="white"/>
<path d="M27.1955 148.391L30.9389 146.754L31.8001 147.934L19.2646 153.339L18.2751 151.983L27.267 141.733L28.1529 142.945L25.4583 146.019L27.1955 148.394V148.391ZM24.5872 146.897L22.2701 149.45C21.6211 150.169 20.834 150.966 20.1307 151.677L20.1776 151.741C21.0832 151.275 22.1245 150.756 22.9463 150.376L26.0801 148.939L24.5897 146.897H24.5872Z" fill="white"/>
<path d="M23.8173 135.857L13.5323 144.834L12.7674 143.407L17.6458 139.306C18.8179 138.318 20.3183 137.064 21.7026 136.052L21.6754 136C20.069 136.639 18.2578 137.188 16.7155 137.657L10.6575 139.476L9.89258 138.049L23.082 134.484L23.8198 135.859L23.8173 135.857Z" fill="white"/>
<path d="M8.1702 134.114L20.3454 128.747L20.9574 130.139L8.78216 135.506L8.1702 134.114Z" fill="white"/>
<path d="M11.7112 123.829L12.8389 126.969L17.5397 125.28L16.259 121.711L17.5027 121.264L19.2966 126.263L6.77597 130.761L5.06097 125.984L6.30465 125.537L7.50638 128.882L11.6298 127.401L10.5021 124.261L11.7087 123.826L11.7112 123.829Z" fill="white"/>
<path d="M5.02397 120.965L5.64087 123.315L4.32316 123.661L2.70441 117.491L4.02211 117.146L4.63902 119.496L16.1899 116.464L16.5749 117.936L5.02397 120.967V120.965Z" fill="white"/>
<path d="M8.46628 106.053L9.64086 105.895L10.2208 110.181L9.04617 110.339L8.46628 106.053Z" fill="white"/>
<path d="M0.641484 100.044C0.473686 99.4343 0.362644 98.706 0.347838 97.837C0.328097 96.6124 0.606938 95.5805 1.288 94.8793C1.90984 94.2177 2.86974 93.8671 4.01471 93.8473C5.23865 93.8276 6.07271 94.109 6.7513 94.6127C7.75068 95.3262 8.26395 96.5433 8.28369 97.7283C8.28862 97.9851 8.29109 98.1826 8.27382 98.3999L13.7223 98.311L13.747 99.8318L0.641484 100.044ZM6.99313 98.4196C7.03014 98.2419 7.04741 98.0839 7.04248 97.8271C7.0178 96.326 6.01595 95.336 4.14056 95.3657C2.77844 95.3879 1.56437 95.9804 1.59152 97.6592C1.59645 98.0147 1.64087 98.311 1.70503 98.506L6.99559 98.4196H6.99313Z" fill="white"/>
<path d="M9.86049 90.9168L13.7667 92.1167L13.6532 93.5733L0.624207 89.4973L0.75499 87.8234L14.2528 85.9125L14.1344 87.4086L10.09 87.9814L9.86049 90.9144V90.9168ZM8.85617 88.0851L5.43606 88.5097C4.47615 88.6332 3.36079 88.7221 2.36388 88.8035L2.35894 88.8825C3.35092 89.1195 4.47615 89.4059 5.34722 89.6528L8.65876 90.6058L8.85617 88.0851Z" fill="white"/>
<path d="M1.64827 81.7427C1.60385 81.1131 1.63593 80.3749 1.79139 79.5207C2.01101 78.3159 2.48726 77.358 3.28923 76.8026C4.02705 76.2742 5.03877 76.1187 6.16647 76.3236C7.37067 76.5433 8.13316 76.9828 8.70071 77.6099C9.5397 78.506 9.80621 79.7997 9.59399 80.965C9.54711 81.2168 9.51256 81.4119 9.45334 81.6217L14.813 82.5994L14.5391 84.0955L1.64333 81.7427H1.64827ZM8.19485 81.3921C8.26641 81.2242 8.3133 81.0736 8.36018 80.8193C8.62915 79.343 7.83952 78.1752 5.99374 77.837C4.65383 77.5926 3.34599 77.9357 3.04494 79.5874C2.98078 79.938 2.96598 80.2367 2.99065 80.4416L8.19485 81.3921Z" fill="white"/>
<path d="M12.4268 74.6399L16.032 76.5606L15.6421 77.9703L3.62976 71.4872L4.0764 69.8701L17.6902 70.5663L17.2905 72.0131L13.209 71.8057L12.4243 74.6424L12.4268 74.6399ZM11.9802 71.6674L8.54278 71.4329C7.57795 71.3712 6.46505 71.2453 5.4706 71.1342L5.44839 71.2107C6.37622 71.6329 7.42742 72.1266 8.2368 72.5364L11.3065 74.1042L11.9802 71.6674Z" fill="white"/>
<path d="M20.1603 64.2116L6.7439 61.6983L7.38794 60.2121L13.6285 61.5033C15.1313 61.8119 17.0437 62.2118 18.697 62.671L18.7217 62.6167C17.2239 61.7502 15.6717 60.6663 14.3491 59.7479L9.1671 56.1163L9.81114 54.6301L20.7797 62.7797L20.1579 64.2116H20.1603Z" fill="white"/>
<path d="M11.8371 50.8429L23.5928 57.0816L22.8797 58.4247L11.1239 52.1859L11.8371 50.8429Z" fill="white"/>
<path d="M22.0949 47.2557L20.3306 50.0874L24.57 52.7315L26.5761 49.5146L27.6989 50.2158L24.8883 54.7239L13.5965 47.6803L16.2812 43.3722L17.404 44.0733L15.5237 47.0902L19.2424 49.4109L21.0067 46.5792L22.0949 47.2581V47.2557Z" fill="white"/>
<path d="M20.1899 40.2294L18.7291 42.1699L17.6409 41.3503L21.4756 36.2521L22.5638 37.0718L21.103 39.0123L30.6477 46.1966L29.7347 47.4112L20.1899 40.2269V40.2294Z" fill="white"/>
<path d="M34.0086 33.6747L34.8624 34.4968L31.8667 37.6149L31.0129 36.7928L34.0086 33.6747Z" fill="white"/>
</g>
<defs>
<clipPath id="clip0_216_90337">
<rect width="191.304" height="191.304" fill="white" transform="translate(0.347839 0.565247)"/>
</clipPath>
</defs>
</svg>
